<svg
 xmlns="http://www.w3.org/2000/svg"
 xmlns:xlink="http://www.w3.org/1999/xlink"
 width="93px" height="81px">
<defs>
<filter id="Filter_0">
    <feFlood flood-color="rgb(105, 210, 231)" flood-opacity="1" result="floodOut" />
    <feComposite operator="atop" in="floodOut" in2="SourceGraphic" result="compOut" />
    <feBlend mode="normal" in="compOut" in2="SourceGraphic" />
</filter>

</defs>
<g filter="url(#Filter_0)">
<path fill-rule="evenodd"  fill="rgb(250, 105, 0)"
 d="M90.625,46.037 L78.593,46.037 L70.570,31.826 C70.207,31.097 69.481,30.734 68.740,30.734 L52.336,30.734 L45.039,17.991 L53.062,3.780 C53.803,3.054 53.425,1.599 52.336,0.858 C51.244,0.495 50.140,0.858 49.413,1.947 L41.393,15.798 L26.439,15.798 L18.404,1.947 C17.677,0.858 16.225,0.495 15.484,0.858 C14.395,1.599 14.029,3.054 14.770,3.780 L22.793,17.991 L14.770,31.826 C14.029,32.553 14.029,33.293 14.770,34.020 L22.793,48.230 L15.121,60.973 L2.363,60.973 C1.256,60.973 0.181,62.066 0.181,63.155 C0.181,64.244 1.256,65.333 2.363,65.333 L15.121,65.333 L23.141,79.195 C23.519,79.924 24.245,80.288 24.972,80.288 L42.482,80.288 C43.209,80.288 43.950,79.924 44.298,79.195 L52.336,65.333 L68.740,65.333 C69.481,65.333 70.207,64.985 70.570,64.244 L78.593,50.033 L90.625,50.033 C92.092,50.033 92.818,49.319 92.818,48.230 C92.818,46.763 92.092,46.037 90.625,46.037 L90.625,46.037 ZM26.439,20.172 L26.439,20.172 L41.393,20.172 L48.687,32.930 L41.393,46.037 L26.439,46.037 L18.781,32.930 L26.439,20.172 ZM41.393,75.913 L41.393,75.913 L26.439,75.913 L18.781,63.155 L26.439,50.033 L41.393,50.033 L48.687,63.155 L41.393,75.913 Z"/>
</g>
</svg>
