<svg xmlns="http://www.w3.org/2000/svg" xmlns:xlink="http://www.w3.org/1999/xlink" width="93px" height="77px">
    <path fill-rule="evenodd" fill="rgb(255, 255, 255)" d="M73.399,56.387 C74.488,55.676 75.592,56.387 76.318,57.491 C76.681,57.854 76.318,58.580 76.318,59.307 L78.862,67.693 L73.762,60.399 C73.021,60.036 72.672,59.670 72.294,59.307 C71.580,58.217 72.294,56.765 73.399,56.387 L73.399,56.387 ZM42.752,18.503 L42.752,18.503 C44.945,15.220 43.856,10.497 40.207,8.304 C36.547,6.108 31.809,7.578 29.616,11.208 L17.947,31.264 C20.140,34.183 20.503,37.817 18.688,40.721 L15.753,45.474 C13.572,49.486 8.471,50.923 4.462,48.745 C0.451,46.200 -1.016,41.085 1.162,37.454 L4.085,32.353 C5.915,29.431 8.834,27.978 12.120,28.341 L23.789,7.578 C27.797,0.659 36.547,-1.535 43.478,2.492 C50.409,6.485 52.965,15.220 48.957,22.151 L41.299,34.895 L35.457,45.474 L27.797,58.217 C25.967,61.866 27.071,66.589 30.720,68.782 C34.365,70.975 39.103,69.508 40.936,65.875 L43.115,62.592 L39.103,60.399 C36.925,58.944 36.199,56.024 37.273,53.843 L62.093,11.208 C63.167,9.030 66.104,7.941 68.661,9.393 L90.543,21.788 C92.725,23.241 93.451,26.163 92.362,28.704 L82.871,44.733 C90.543,49.108 93.088,58.944 88.713,66.589 C84.338,74.246 74.488,76.803 66.831,72.416 L66.831,72.416 C65.363,73.505 62.819,73.883 60.989,72.779 L48.957,65.875 L47.126,69.145 C43.115,76.076 34.365,78.606 27.422,74.609 C20.503,70.598 17.947,61.866 21.958,54.935 L29.253,42.189 L35.457,31.612 L42.752,18.503 ZM84.704,64.044 L84.704,64.044 C87.624,58.580 85.808,51.301 80.330,48.382 C74.851,45.111 67.557,46.912 64.634,52.390 C61.352,58.217 63.167,65.134 68.661,68.419 C74.125,71.324 81.419,69.508 84.704,64.044 L84.704,64.044 Z" />
</svg>
