<svg xmlns="http://www.w3.org/2000/svg" xmlns:xlink="http://www.w3.org/1999/xlink" width="83px" height="93px">
    <defs>
        <filter id="Filter_0">
            <feFlood flood-color="rgb(105, 210, 231)" flood-opacity="1" result="floodOut" />
            <feComposite operator="atop" in="floodOut" in2="SourceGraphic" result="compOut" />
            <feBlend mode="normal" in="compOut" in2="SourceGraphic" />
        </filter>
    </defs>
    <g filter="url(#Filter_0)">
        <path fill-rule="evenodd" fill="rgb(250, 105, 0)" d="M41.310,38.115 C36.923,38.115 32.911,41.764 32.911,46.501 C32.911,50.858 36.923,54.870 41.310,54.870 C46.047,54.870 49.696,50.858 49.696,46.501 C49.696,41.764 46.047,38.115 41.310,38.115 L41.310,38.115 ZM77.057,71.640 L77.057,71.640 C76.331,72.729 74.864,73.455 73.394,74.181 C71.578,74.922 69.385,75.270 67.204,75.270 C64.647,75.270 61.728,74.922 58.805,74.181 C59.183,72.366 59.909,70.914 60.273,69.080 C61.362,65.450 62.103,61.438 62.469,57.063 C65.373,54.522 67.930,51.962 70.489,49.043 C70.852,49.769 71.215,50.147 71.578,50.510 C73.772,53.432 75.590,56.337 76.694,59.260 C77.783,62.164 78.509,64.724 78.509,66.539 C78.509,68.717 78.161,70.172 77.057,71.640 L77.057,71.640 ZM55.523,73.092 L55.523,73.092 C53.705,72.729 52.252,72.003 50.437,71.640 C48.604,70.914 46.773,69.821 44.958,69.080 C47.878,67.265 51.148,65.813 54.068,63.631 C55.523,62.527 56.990,61.438 58.457,60.349 C57.716,65.072 56.990,69.458 55.523,73.092 L55.523,73.092 ZM54.068,77.467 L54.068,77.467 C52.252,81.112 50.059,84.035 47.878,86.213 C46.773,87.302 45.669,88.031 44.595,88.395 C43.854,89.136 42.399,89.484 41.310,89.484 C40.220,89.484 39.116,89.136 38.012,88.395 C36.209,87.668 34.378,85.850 32.563,83.657 C31.096,81.464 29.626,79.282 28.536,76.378 C30.367,75.648 31.822,75.270 33.637,74.544 C36.209,73.455 38.753,72.366 41.310,70.914 C43.854,72.366 46.773,73.455 48.967,74.544 C50.785,75.270 52.615,76.014 54.446,76.378 C54.068,76.741 54.068,77.104 54.068,77.467 L54.068,77.467 ZM25.980,67.991 L25.980,67.991 C25.254,65.813 24.891,62.890 24.162,59.986 C25.617,61.075 27.084,62.164 28.536,63.253 C31.459,65.450 34.741,67.265 37.649,69.080 C35.831,69.821 34.000,70.550 32.563,71.262 C30.730,72.003 28.900,72.366 27.447,73.092 C26.721,71.640 26.343,69.821 25.980,67.991 L25.980,67.991 ZM15.764,74.922 L15.764,74.922 C13.207,74.922 11.026,74.544 9.573,73.833 C7.743,73.455 6.291,72.366 5.562,71.262 C4.473,69.821 4.095,68.354 4.095,66.176 C4.095,64.346 4.836,61.801 5.928,58.882 C7.380,55.959 9.573,52.328 12.496,49.043 L12.496,49.421 C15.037,51.599 17.594,54.522 20.516,57.063 C21.242,63.253 22.332,68.717 24.162,73.833 C20.879,74.544 17.957,74.922 15.764,74.922 L15.764,74.922 ZM20.153,51.962 L20.153,51.962 C17.957,50.147 16.141,48.332 14.689,46.135 L15.037,45.772 C16.505,43.942 18.323,42.490 20.153,40.674 C19.775,42.490 19.775,44.320 19.775,46.501 C19.775,48.332 19.775,50.147 20.153,51.962 L20.153,51.962 ZM5.928,33.740 L5.928,33.740 C4.836,30.836 4.473,28.276 4.473,26.098 C4.473,24.268 4.836,22.464 5.928,21.360 C6.654,20.256 8.106,19.167 9.573,18.819 C11.389,18.078 13.207,17.729 15.764,17.729 C17.957,17.729 20.879,18.078 24.162,18.819 C23.436,20.256 23.073,22.086 22.710,23.919 C21.605,27.550 20.879,31.562 20.516,35.573 C17.594,38.478 14.689,41.037 12.496,43.579 C12.118,43.231 11.755,42.853 11.389,42.490 C9.195,39.219 7.380,36.300 5.928,33.740 L5.928,33.740 ZM27.447,19.545 L27.447,19.545 C28.900,20.256 30.730,20.634 32.563,21.360 C34.378,22.086 35.831,22.827 38.012,23.919 C34.741,25.372 31.822,27.187 28.900,29.383 C27.447,30.473 25.617,31.562 24.162,32.651 C24.891,27.928 25.980,23.556 27.447,19.545 L27.447,19.545 ZM28.900,15.533 L28.900,15.533 C30.730,11.888 32.563,8.617 34.741,6.424 C35.831,5.698 36.923,4.968 38.012,4.242 C39.116,3.864 40.220,3.516 41.310,3.516 C42.399,3.516 43.854,3.864 44.595,4.242 C46.773,4.968 48.604,6.787 50.437,9.343 C51.889,11.536 52.978,13.718 54.446,16.637 C52.615,17.352 50.785,17.729 49.330,18.455 C46.773,19.545 44.232,20.256 41.658,21.723 C38.753,20.256 36.209,19.167 33.637,18.455 C31.822,17.729 30.367,16.988 28.536,16.637 C28.900,16.259 28.900,15.896 28.900,15.533 L28.900,15.533 ZM56.990,24.646 L56.990,24.646 C57.716,27.187 58.079,30.110 58.457,32.651 C56.990,31.562 55.901,30.473 54.068,29.383 C51.148,27.187 48.241,25.372 45.321,23.919 C47.137,22.827 48.604,22.086 50.437,21.723 C52.252,20.997 54.068,20.256 55.523,19.908 C55.901,21.360 56.627,22.827 56.990,24.646 L56.990,24.646 ZM59.532,46.501 L59.532,46.501 C59.532,49.421 59.532,52.328 59.183,55.248 C56.990,57.063 54.794,58.882 52.252,60.712 C48.604,63.253 44.958,65.450 41.310,67.265 C37.649,65.450 34.000,63.253 30.730,60.712 C28.173,58.882 25.980,57.063 23.784,55.248 C23.436,52.328 23.436,49.421 23.436,46.501 C23.436,43.231 23.436,40.308 23.784,37.389 C25.980,35.573 28.173,34.118 30.730,32.288 C34.378,29.747 38.012,27.550 41.658,25.735 C44.958,27.550 48.604,29.747 52.252,32.288 C54.794,34.118 56.990,35.573 59.183,37.389 C59.532,40.308 59.532,43.579 59.532,46.501 L59.532,46.501 ZM62.832,40.674 L62.832,40.674 C64.647,42.853 66.841,44.668 68.296,46.501 L67.930,47.242 C66.114,49.043 64.647,50.510 62.832,51.962 C62.832,50.147 62.832,48.332 62.832,46.501 C62.832,44.668 62.832,42.853 62.832,40.674 L62.832,40.674 ZM67.204,18.078 L67.204,18.078 C69.748,18.078 71.941,18.455 73.394,18.819 C75.227,19.545 76.331,20.256 77.405,21.723 C78.161,22.827 78.509,24.646 78.509,26.461 C78.509,28.654 78.161,31.199 77.057,33.740 C75.590,37.026 73.394,40.308 70.489,43.942 L70.126,43.579 C67.930,41.037 65.373,38.478 62.469,35.937 C61.728,29.747 60.636,23.919 58.805,19.167 C62.103,18.455 64.647,18.078 67.204,18.078 L67.204,18.078 ZM72.668,46.501 L72.668,46.501 C73.394,46.135 73.772,45.409 74.501,44.668 C76.694,41.401 78.509,38.115 79.977,35.211 C81.417,32.288 82.173,29.383 82.173,26.461 C82.173,23.919 81.417,21.723 79.977,19.545 C78.509,17.729 76.694,16.637 74.501,15.896 C72.319,14.807 69.748,14.444 67.204,14.444 C64.284,14.444 60.999,15.170 57.716,15.896 C57.353,15.170 57.353,14.807 56.990,14.444 C55.172,10.069 52.978,6.424 50.437,4.242 C48.967,2.775 47.500,2.049 46.047,1.323 C44.595,0.597 43.128,0.234 41.310,0.234 C39.842,0.234 38.390,0.597 36.572,1.323 C34.000,2.427 31.822,4.605 29.626,7.150 C28.173,9.706 26.721,12.629 25.254,15.533 C21.969,14.807 18.701,14.444 15.764,14.444 C13.207,14.444 10.663,14.807 8.484,15.533 C6.291,16.259 4.473,17.729 3.005,19.167 C1.553,20.997 1.175,23.556 1.175,26.098 C1.175,29.017 1.553,31.925 3.005,34.847 C4.473,38.478 7.017,42.490 9.936,46.135 C9.573,46.865 8.847,47.591 8.484,48.332 C5.928,51.599 4.095,54.522 2.642,57.789 C1.553,60.712 0.827,63.631 0.827,66.176 C0.827,68.717 1.553,71.262 2.642,73.092 C4.095,74.922 5.928,76.378 8.106,77.104 C10.300,77.845 12.859,78.193 15.764,78.193 C18.701,78.193 21.605,77.845 25.254,77.104 C25.254,77.467 25.617,78.193 25.980,78.556 C27.795,82.567 29.989,86.213 32.563,88.758 C34.000,89.862 35.105,90.951 36.572,91.677 C38.390,92.403 39.842,92.766 41.310,92.766 C43.128,92.766 44.595,92.403 46.047,91.677 C48.604,90.588 51.148,88.395 52.978,85.472 C54.794,83.294 56.264,80.371 57.716,77.467 C60.999,78.193 64.284,78.556 67.204,78.556 C69.748,78.556 72.319,78.193 74.501,77.467 C76.694,76.741 78.509,75.270 79.599,73.455 C81.069,71.640 81.795,69.080 81.795,66.539 C81.795,63.982 81.069,61.075 79.977,57.789 C78.161,54.159 75.953,50.510 72.668,46.501 L72.668,46.501 Z" />
    </g>
</svg>
